<svg xmlns="http://www.w3.org/2000/svg"
  viewBox="0 0 360 360" 
  height="100%" width="100%"
  style="border-style: none"
>

    <g transform="matrix(1.78571,0,0,1.78571,-101.179,-139.929)">
        <g>
            <rect x="127.67" y="158.81" width="40.83" height="35.9" style="fill:none;"/>
            <path d="M152.01,163.37L130.82,192.19L128.14,192.19L147.94,165.37L138.37,165.37C135.38,165.37 133.27,165.71 132.03,166.38C130.77,167.07 129.82,168.43 129.16,170.45L128.53,170.45C128.55,169.59 128.7,168.15 128.99,166.13C129.14,165.15 129.21,164.45 129.21,164.05C129.21,164 129.19,163.66 129.16,163.04C131,163.26 133.5,163.37 136.65,163.37L152.01,163.37ZM133.31,192.19L154.56,163.37L157.21,163.37L137.5,190.19L146.28,190.19C149.73,190.19 152.18,189.62 153.64,188.49C155.04,187.4 156.13,185.99 156.89,184.28L157.52,184.28C157.48,185.08 157.15,186.49 156.51,188.52C155.91,190.43 155.57,191.77 155.5,192.51C153.04,192.29 150.8,192.18 148.77,192.18L133.31,192.18L133.31,192.19Z" style="fill:rgb(77,77,79);fill-rule:nonzero;"/>
        </g>
        <g>
            <rect x="161.64" y="162.08" width="131.96" height="41.78" style="fill:none;"/>
            <path d="M162.34,164.24C162.34,163.99 162.43,163.77 162.6,163.59C162.77,163.41 162.99,163.32 163.24,163.32C163.49,163.32 163.7,163.41 163.87,163.59C164.04,163.77 164.13,163.98 164.13,164.24C164.13,164.49 164.04,164.7 163.87,164.88C163.7,165.05 163.49,165.14 163.24,165.14C162.98,165.14 162.77,165.05 162.6,164.88C162.43,164.71 162.34,164.49 162.34,164.24ZM162.54,174.19L162.54,166.53L163.95,166.53L163.95,174.19L162.54,174.19Z" style="fill:rgb(77,77,79);fill-rule:nonzero;"/>
            <path d="M165.73,174.2L165.73,166.53L167.12,166.53L167.12,167.3C167.31,167.02 167.54,166.81 167.8,166.67C168.07,166.53 168.38,166.46 168.73,166.46C169.29,166.46 169.71,166.62 169.98,166.93C170.25,167.24 170.39,167.72 170.39,168.36L170.39,174.2L168.98,174.2L168.98,169.05C168.98,168.53 168.91,168.17 168.78,167.99C168.64,167.8 168.41,167.71 168.08,167.71C167.77,167.71 167.53,167.81 167.37,168C167.21,168.2 167.13,168.49 167.13,168.87L167.13,174.2L165.73,174.2Z" style="fill:rgb(77,77,79);fill-rule:nonzero;"/>
            <path d="M171.67,172.57C171.87,172.74 172.06,172.87 172.26,172.96C172.46,173.05 172.65,173.09 172.86,173.09C173.16,173.09 173.4,173 173.59,172.82C173.78,172.64 173.87,172.42 173.87,172.14C173.87,171.81 173.61,171.4 173.1,170.91C173.03,170.84 172.98,170.79 172.94,170.76C172.44,170.29 172.1,169.89 171.93,169.58C171.76,169.27 171.67,168.92 171.67,168.55C171.67,167.9 171.87,167.38 172.26,166.97C172.66,166.56 173.17,166.36 173.8,166.36C174.01,166.36 174.21,166.39 174.41,166.44C174.61,166.49 174.81,166.57 175.01,166.67L175.01,168.12C174.86,167.94 174.69,167.81 174.51,167.73C174.33,167.65 174.12,167.61 173.89,167.61C173.63,167.61 173.41,167.69 173.25,167.86C173.08,168.03 173,168.24 173,168.49C173,168.83 173.25,169.22 173.74,169.68C173.84,169.77 173.91,169.84 173.96,169.88C174.42,170.31 174.75,170.69 174.92,171.04C175.09,171.39 175.19,171.77 175.19,172.19C175.19,172.84 174.99,173.36 174.6,173.75C174.2,174.14 173.68,174.33 173.01,174.33C172.8,174.33 172.58,174.31 172.35,174.26C172.13,174.21 171.9,174.14 171.66,174.05L171.66,172.57L171.67,172.57Z" style="fill:rgb(77,77,79);fill-rule:nonzero;"/>
            <path d="M176.52,174.19L176.52,162.08L177.93,162.08L177.93,169.93L179.96,166.52L181.47,166.52L179.35,170.04L181.56,174.18L180.04,174.18L177.93,170.15L177.93,174.18L176.52,174.18L176.52,174.19Z" style="fill:rgb(77,77,79);fill-rule:nonzero;"/>
            <path d="M181.93,166.53L183.38,166.53L184.28,171.55L185.49,166.53L186.89,166.53L183.8,177.28L182.35,177.28L183.53,173.52L181.93,166.53Z" style="fill:rgb(77,77,79);fill-rule:nonzero;"/>
            <path d="M190.62,162.45L189.17,166.45L188.39,166.22L189.43,162.08L190.62,162.45Z" style="fill:rgb(77,77,79);fill-rule:nonzero;"/>
            <path d="M191.6,172.57C191.8,172.74 191.99,172.87 192.19,172.96C192.39,173.05 192.58,173.09 192.79,173.09C193.09,173.09 193.33,173 193.52,172.82C193.71,172.64 193.8,172.42 193.8,172.14C193.8,171.81 193.54,171.4 193.03,170.91C192.96,170.84 192.91,170.79 192.87,170.76C192.37,170.29 192.03,169.89 191.86,169.58C191.69,169.27 191.6,168.92 191.6,168.55C191.6,167.9 191.8,167.38 192.19,166.97C192.59,166.56 193.1,166.36 193.73,166.36C193.94,166.36 194.14,166.39 194.34,166.44C194.54,166.49 194.74,166.57 194.94,166.67L194.94,168.12C194.79,167.94 194.62,167.81 194.44,167.73C194.26,167.65 194.05,167.61 193.82,167.61C193.56,167.61 193.34,167.69 193.18,167.86C193.01,168.03 192.93,168.24 192.93,168.49C192.93,168.83 193.18,169.22 193.67,169.68C193.77,169.77 193.84,169.84 193.89,169.88C194.35,170.31 194.68,170.69 194.85,171.04C195.02,171.39 195.12,171.77 195.12,172.19C195.12,172.84 194.92,173.36 194.53,173.75C194.13,174.14 193.61,174.33 192.94,174.33C192.73,174.33 192.51,174.31 192.28,174.26C192.06,174.21 191.83,174.14 191.59,174.05L191.59,172.57L191.6,172.57Z" style="fill:rgb(77,77,79);fill-rule:nonzero;"/>
            <path d="M162.66,192.19L162.66,180.78L164.54,180.78C165.23,180.78 165.77,180.83 166.16,180.93C166.55,181.03 166.88,181.19 167.17,181.42C167.5,181.69 167.76,182.05 167.95,182.5C168.13,182.95 168.23,183.45 168.23,183.99C168.23,185.03 167.93,185.82 167.32,186.37C166.71,186.91 165.83,187.18 164.66,187.18L164.38,187.18C164.32,187.18 164.26,187.17 164.22,187.17L164.22,192.19L162.66,192.19ZM164.2,185.79L164.77,185.79C165.46,185.79 165.95,185.65 166.24,185.36C166.53,185.07 166.68,184.6 166.68,183.93C166.68,183.29 166.52,182.83 166.22,182.55C165.91,182.27 165.39,182.13 164.67,182.13L164.21,182.13L164.21,185.79L164.2,185.79Z" style="fill:rgb(77,77,79);fill-rule:nonzero;"/>
            <path d="M174.39,191.93C174.13,192.07 173.88,192.17 173.62,192.23C173.36,192.3 173.08,192.33 172.79,192.33C171.62,192.33 170.75,191.85 170.17,190.9C169.59,189.95 169.3,188.51 169.3,186.59C169.3,184.63 169.61,183.15 170.23,182.14C170.85,181.14 171.76,180.63 172.97,180.63C173.24,180.63 173.49,180.66 173.72,180.71C173.95,180.76 174.18,180.84 174.39,180.94L174.39,182.4C174.17,182.29 173.96,182.21 173.76,182.16C173.56,182.11 173.37,182.08 173.19,182.08C172.37,182.08 171.78,182.44 171.4,183.15C171.02,183.87 170.84,185.01 170.84,186.57C170.84,188.03 171.02,189.11 171.38,189.81C171.74,190.51 172.29,190.86 173.03,190.86C173.24,190.86 173.46,190.82 173.68,190.75C173.9,190.68 174.14,190.57 174.39,190.43L174.39,191.93Z" style="fill:rgb(77,77,79);fill-rule:nonzero;"/>
            <path d="M183.57,191.93C183.31,192.07 183.06,192.17 182.8,192.23C182.54,192.3 182.26,192.33 181.97,192.33C180.8,192.33 179.93,191.85 179.35,190.9C178.77,189.95 178.48,188.51 178.48,186.59C178.48,184.63 178.79,183.15 179.41,182.14C180.03,181.14 180.94,180.63 182.15,180.63C182.42,180.63 182.67,180.66 182.9,180.71C183.13,180.76 183.36,180.84 183.57,180.94L183.57,182.4C183.35,182.29 183.14,182.21 182.94,182.16C182.74,182.11 182.55,182.08 182.37,182.08C181.55,182.08 180.96,182.44 180.58,183.15C180.2,183.87 180.02,185.01 180.02,186.57C180.02,188.03 180.2,189.11 180.56,189.81C180.92,190.51 181.47,190.86 182.21,190.86C182.42,190.86 182.64,190.82 182.86,190.75C183.08,190.68 183.32,190.57 183.57,190.43L183.57,191.93Z" style="fill:rgb(77,77,79);fill-rule:nonzero;"/>
            <path d="M184.4,188.35C184.4,187.06 184.62,186.08 185.06,185.4C185.5,184.73 186.14,184.39 186.98,184.39C187.82,184.39 188.46,184.73 188.9,185.4C189.34,186.07 189.56,187.06 189.56,188.35C189.56,189.65 189.34,190.64 188.9,191.32C188.46,192 187.82,192.34 186.98,192.34C186.14,192.34 185.5,192 185.06,191.32C184.62,190.64 184.4,189.65 184.4,188.35ZM185.83,188.33C185.83,189.27 185.92,189.95 186.11,190.39C186.29,190.83 186.58,191.04 186.98,191.04C187.38,191.04 187.68,190.82 187.87,190.38C188.06,189.94 188.16,189.26 188.16,188.33C188.16,187.4 188.06,186.72 187.87,186.28C187.68,185.84 187.38,185.62 186.98,185.62C186.58,185.62 186.29,185.84 186.11,186.27C185.92,186.71 185.83,187.4 185.83,188.33Z" style="fill:rgb(77,77,79);fill-rule:nonzero;"/>
            <path d="M190.93,192.2L190.93,184.53L192.32,184.53L192.32,185.3C192.51,185.02 192.74,184.81 193,184.67C193.27,184.53 193.58,184.46 193.93,184.46C194.49,184.46 194.91,184.62 195.18,184.93C195.45,185.24 195.59,185.72 195.59,186.36L195.59,192.2L194.18,192.2L194.18,187.05C194.18,186.53 194.11,186.17 193.98,185.99C193.84,185.8 193.61,185.71 193.28,185.71C192.97,185.71 192.73,185.81 192.57,186C192.41,186.2 192.33,186.49 192.33,186.87L192.33,192.2L190.93,192.2Z" style="fill:rgb(77,77,79);fill-rule:nonzero;"/>
            <path d="M197.41,192.19L197.41,185.61L196.64,185.61L196.64,184.52L197.41,184.52L197.41,181.83C197.41,181.24 197.56,180.77 197.85,180.42C198.14,180.08 198.55,179.9 199.06,179.9C199.18,179.9 199.31,179.91 199.47,179.94C199.62,179.97 199.79,180.01 199.98,180.08L199.98,181.36C199.88,181.32 199.78,181.3 199.69,181.28C199.6,181.26 199.52,181.26 199.45,181.26C199.24,181.26 199.08,181.32 198.99,181.44C198.89,181.56 198.85,181.76 198.85,182.03L198.85,184.51L199.9,184.51L199.9,185.6L198.85,185.6L198.85,192.18L197.41,192.18L197.41,192.19Z" style="fill:rgb(77,77,79);fill-rule:nonzero;"/>
            <path d="M200.62,182.24C200.62,181.99 200.71,181.77 200.88,181.59C201.05,181.41 201.26,181.32 201.52,181.32C201.77,181.32 201.98,181.41 202.15,181.59C202.32,181.77 202.41,181.98 202.41,182.24C202.41,182.49 202.32,182.7 202.15,182.88C201.98,183.05 201.77,183.14 201.52,183.14C201.26,183.14 201.05,183.05 200.88,182.88C200.71,182.71 200.62,182.49 200.62,182.24ZM200.81,192.19L200.81,184.53L202.22,184.53L202.22,192.19L200.81,192.19Z" style="fill:rgb(77,77,79);fill-rule:nonzero;"/>
            <path d="M208.57,192.37C208.57,193.43 208.38,194.18 207.99,194.62C207.6,195.06 206.95,195.28 206.05,195.28C205.3,195.28 204.73,195.09 204.34,194.71C203.94,194.33 203.75,193.79 203.75,193.09L203.75,192.85L205.09,192.85C205.11,193.27 205.19,193.58 205.35,193.78C205.51,193.98 205.75,194.08 206.07,194.08C206.46,194.08 206.74,193.96 206.91,193.71C207.08,193.46 207.17,193.06 207.17,192.51L207.17,191.42C206.98,191.72 206.76,191.95 206.51,192.09C206.26,192.24 205.98,192.31 205.65,192.31C204.97,192.31 204.48,191.99 204.16,191.35C203.84,190.71 203.68,189.71 203.68,188.35C203.68,187 203.84,186 204.16,185.35C204.48,184.71 204.97,184.39 205.65,184.39C205.98,184.39 206.27,184.46 206.51,184.6C206.76,184.74 206.97,184.96 207.16,185.26L207.16,184.53L208.57,184.53L208.57,192.37ZM205.1,188.35C205.1,189.33 205.18,190.02 205.34,190.42C205.5,190.81 205.77,191.01 206.15,191.01C206.53,191.01 206.8,190.81 206.96,190.42C207.12,190.03 207.2,189.34 207.2,188.35C207.2,187.37 207.12,186.68 206.96,186.29C206.8,185.9 206.53,185.7 206.15,185.7C205.77,185.7 205.5,185.9 205.34,186.29C205.18,186.68 205.1,187.37 205.1,188.35Z" style="fill:rgb(77,77,79);fill-rule:nonzero;"/>
            <path d="M210.23,189.93L210.23,184.52L211.64,184.52L211.64,190C211.64,190.35 211.72,190.62 211.87,190.8C212.03,190.98 212.26,191.07 212.57,191.07C212.87,191.07 213.1,190.98 213.26,190.8C213.42,190.62 213.49,190.35 213.49,190L213.49,184.52L214.92,184.52L214.92,189.93C214.92,190.77 214.73,191.39 214.36,191.76C213.99,192.14 213.39,192.33 212.57,192.33C211.75,192.33 211.15,192.14 210.78,191.76C210.41,191.39 210.23,190.78 210.23,189.93Z" style="fill:rgb(77,77,79);fill-rule:nonzero;"/>
            <path d="M216.66,192.19L216.66,184.53L218.02,184.53L218.02,185.65C218.21,185.24 218.46,184.94 218.76,184.73C219.06,184.52 219.43,184.41 219.87,184.39L219.87,185.87L219.64,185.87C219.09,185.87 218.69,186.01 218.44,186.28C218.19,186.55 218.06,186.98 218.06,187.57L218.06,192.19L216.66,192.19Z" style="fill:rgb(77,77,79);fill-rule:nonzero;"/>
            <path d="M224.14,192.19L224.14,191.44C223.95,191.75 223.73,191.97 223.48,192.12C223.23,192.26 222.95,192.33 222.62,192.33C221.97,192.33 221.48,191.99 221.15,191.32C220.82,190.65 220.65,189.66 220.65,188.34C220.65,187.04 220.82,186.05 221.15,185.38C221.48,184.71 221.97,184.38 222.62,184.38C222.95,184.38 223.24,184.45 223.48,184.59C223.72,184.73 223.94,184.95 224.13,185.25L224.13,184.52L225.54,184.52L225.54,192.18L224.14,192.18L224.14,192.19ZM222.08,188.35C222.08,189.33 222.16,190.02 222.33,190.42C222.49,190.82 222.76,191.02 223.14,191.02C223.52,191.02 223.78,190.82 223.95,190.41C224.11,190.01 224.2,189.32 224.2,188.34C224.2,187.36 224.12,186.67 223.96,186.28C223.8,185.89 223.53,185.69 223.15,185.69C222.77,185.69 222.5,185.89 222.34,186.28C222.16,186.68 222.08,187.37 222.08,188.35Z" style="fill:rgb(77,77,79);fill-rule:nonzero;"/>
            <path d="M227.31,192.19L227.31,185.57L226.54,185.57L226.54,184.53L227.31,184.53L227.31,182.45L228.72,182.45L228.72,184.53L229.77,184.53L229.77,185.57L228.72,185.57L228.72,192.19L227.31,192.19Z" style="fill:rgb(77,77,79);fill-rule:nonzero;"/>
            <path d="M230.56,182.24C230.56,181.99 230.65,181.77 230.82,181.59C230.99,181.41 231.21,181.32 231.46,181.32C231.71,181.32 231.92,181.41 232.09,181.59C232.26,181.77 232.35,181.98 232.35,182.24C232.35,182.49 232.26,182.7 232.09,182.88C231.92,183.05 231.71,183.14 231.46,183.14C231.21,183.14 230.99,183.05 230.82,182.88C230.65,182.71 230.56,182.49 230.56,182.24ZM230.76,192.19L230.76,184.53L232.17,184.53L232.17,192.19L230.76,192.19Z" style="fill:rgb(77,77,79);fill-rule:nonzero;"/>
            <path d="M233.54,188.35C233.54,187.06 233.76,186.08 234.2,185.4C234.64,184.73 235.28,184.39 236.12,184.39C236.96,184.39 237.6,184.73 238.04,185.4C238.48,186.07 238.7,187.06 238.7,188.35C238.7,189.65 238.48,190.64 238.04,191.32C237.6,192 236.96,192.34 236.12,192.34C235.28,192.34 234.64,192 234.2,191.32C233.76,190.64 233.54,189.65 233.54,188.35ZM234.97,188.33C234.97,189.27 235.06,189.95 235.25,190.39C235.43,190.83 235.73,191.04 236.12,191.04C236.52,191.04 236.82,190.82 237.01,190.38C237.2,189.94 237.3,189.26 237.3,188.33C237.3,187.4 237.21,186.72 237.01,186.28C236.81,185.84 236.52,185.62 236.12,185.62C235.72,185.62 235.43,185.84 235.25,186.27C235.06,186.71 234.97,187.4 234.97,188.33Z" style="fill:rgb(77,77,79);fill-rule:nonzero;"/>
            <path d="M240.07,192.2L240.07,184.53L241.46,184.53L241.46,185.3C241.65,185.02 241.88,184.81 242.14,184.67C242.4,184.53 242.72,184.46 243.07,184.46C243.63,184.46 244.05,184.62 244.32,184.93C244.59,185.24 244.73,185.72 244.73,186.36L244.73,192.2L243.32,192.2L243.32,187.05C243.32,186.53 243.25,186.17 243.12,185.99C242.99,185.81 242.75,185.71 242.42,185.71C242.11,185.71 241.87,185.81 241.71,186C241.55,186.19 241.47,186.49 241.47,186.87L241.47,192.2L240.07,192.2Z" style="fill:rgb(77,77,79);fill-rule:nonzero;"/>
            <path d="M246.02,190.57C246.22,190.74 246.41,190.87 246.61,190.96C246.81,191.05 247,191.09 247.21,191.09C247.51,191.09 247.75,191 247.94,190.82C248.13,190.64 248.22,190.42 248.22,190.14C248.22,189.81 247.96,189.4 247.45,188.91C247.38,188.84 247.33,188.79 247.29,188.76C246.79,188.29 246.45,187.89 246.28,187.58C246.11,187.27 246.02,186.92 246.02,186.55C246.02,185.9 246.22,185.38 246.61,184.97C247,184.56 247.52,184.36 248.15,184.36C248.36,184.36 248.56,184.39 248.76,184.44C248.96,184.49 249.16,184.57 249.36,184.67L249.36,186.12C249.21,185.94 249.04,185.81 248.86,185.73C248.68,185.65 248.47,185.61 248.24,185.61C247.98,185.61 247.76,185.69 247.6,185.86C247.43,186.03 247.35,186.24 247.35,186.49C247.35,186.83 247.6,187.22 248.09,187.68C248.19,187.77 248.26,187.84 248.31,187.88C248.77,188.31 249.1,188.69 249.27,189.04C249.44,189.39 249.54,189.77 249.54,190.19C249.54,190.84 249.34,191.36 248.95,191.75C248.55,192.14 248.03,192.33 247.36,192.33C247.15,192.33 246.93,192.31 246.7,192.26C246.47,192.21 246.25,192.14 246.01,192.05L246.01,190.57L246.02,190.57Z" style="fill:rgb(77,77,79);fill-rule:nonzero;"/>
        </g>
        <g>
            <g>
                <path d="M113.44,158.75L123.95,158.75L123.95,195.42L64.43,195.42L64.43,158.75L86.3,158.75L86.3,160.33L66.25,160.33L66.25,193.53L121.98,193.53L121.98,160.47L113.44,160.47L113.44,158.75Z" style="fill:rgb(74,137,167);fill-rule:nonzero;"/>
                <path d="M113.44,158.75C113.31,157.82 112.96,156.96 112.43,156.24C111.43,154.87 109.81,153.98 107.99,153.97L107.99,154.68L107.99,154.2L102.94,154.18C102.23,154.18 101.56,154.4 100.98,154.82L101.02,154.88L100.53,155.24C100.31,155.08 100.04,154.98 99.74,154.98C99,154.98 98.4,155.57 98.4,156.31C98.4,157.05 98.99,157.65 99.73,157.65C100.47,157.65 101.07,157.06 101.07,156.32C101.07,156.17 101.04,156.02 100.99,155.89L101.48,155.53L101.24,155.21L101.52,155.59C101.93,155.29 102.41,155.14 102.91,155.14L107.96,155.16L107.96,155.4C110.22,155.41 112.06,157.25 112.05,159.52C112.05,160.61 111.61,161.64 110.83,162.41C110.05,163.18 109.02,163.61 107.93,163.61L107.93,164.32L107.93,163.84L102.72,163.82C102.3,163.82 101.89,163.7 101.53,163.49L101.49,163.55L100.84,163.17C100.86,163.08 100.87,162.98 100.87,162.89C100.87,162.15 100.28,161.55 99.54,161.55C98.8,161.55 98.2,162.14 98.2,162.88C98.2,163.62 98.79,164.22 99.53,164.22C99.88,164.22 100.2,164.08 100.44,163.86L101.08,164.24L101.28,163.9L101.04,164.31C101.55,164.61 102.12,164.77 102.71,164.77L107.92,164.79L107.92,165.03C109.39,165.04 110.78,164.46 111.83,163.42C112.72,162.54 113.27,161.41 113.42,160.2C113.44,159.71 113.44,159.23 113.44,158.75Z" style="fill:rgb(74,137,167);fill-rule:nonzero;"/>
                <circle cx="87.76" cy="159.49" r="2.16" style="fill:rgb(74,137,167);"/>
            </g>
            <ellipse cx="94.11" cy="202.02" rx="16.62" ry="1.96" style="fill:rgb(74,137,167);"/>
            <rect x="92" y="196.45" width="4.23" height="4.23" style="fill:rgb(74,137,167);"/>
        </g>
    </g>

</svg>
