<svg xmlns="http://www.w3.org/2000/svg"
  viewBox="0 0 620 620" 
  height="100%" width="100%"
  style="border-style: none"
>

    <g transform="matrix(3.85802,0,0,3.85802,-324.568,-379.654)">
        <g>
            <path d="M216.88,126.7L244.57,126.7L244.57,223.35L87.74,223.35L87.74,126.7L145.38,126.7L145.38,130.87L92.53,130.87L92.53,218.38L239.4,218.38L239.4,131.25L216.89,131.25L216.88,126.7Z" style="fill:rgb(74,137,167);fill-rule:nonzero;"/>
            <path d="M216.88,126.7C216.55,124.25 215.61,121.99 214.22,120.08C211.58,116.47 207.32,114.12 202.51,114.1L202.51,115.98L202.51,114.73L189.19,114.68C187.32,114.68 185.54,115.25 184.03,116.35L184.15,116.51L182.85,117.46C182.27,117.03 181.56,116.77 180.78,116.77C178.83,116.77 177.25,118.33 177.25,120.28C177.25,122.23 178.81,123.81 180.76,123.81C182.71,123.81 184.29,122.25 184.29,120.3C184.29,119.9 184.21,119.52 184.09,119.16L185.39,118.21L184.77,117.36L185.51,118.37C186.58,117.59 187.85,117.17 189.18,117.18L202.5,117.23L202.5,117.86C208.46,117.88 213.29,122.75 213.27,128.71C213.26,131.58 212.12,134.29 210.07,136.33C208.01,138.37 205.3,139.49 202.43,139.48L202.43,141.36L202.43,140.11L188.7,140.06C187.6,140.06 186.51,139.76 185.57,139.19L185.47,139.36L183.77,138.35C183.82,138.11 183.85,137.86 183.85,137.61C183.85,135.66 182.29,134.08 180.34,134.08C178.39,134.08 176.81,135.64 176.81,137.59C176.81,139.54 178.37,141.12 180.32,141.12C181.25,141.12 182.08,140.76 182.71,140.18L184.39,141.18L184.93,140.27L184.29,141.35C185.62,142.14 187.14,142.56 188.69,142.57L202.42,142.62L202.42,143.25C206.29,143.26 209.95,141.76 212.72,139.01C215.06,136.69 216.5,133.72 216.91,130.52C216.91,129.25 216.91,127.99 216.9,126.72L216.88,126.7Z" style="fill:rgb(74,137,167);fill-rule:nonzero;"/>
            <circle cx="149.23" cy="128.66" r="5.68" style="fill:rgb(74,137,167);"/>
        </g>
        <ellipse cx="165.96" cy="240.74" rx="43.8" ry="5.17" style="fill:rgb(74,137,167);"/>
        <rect x="160.38" y="226.07" width="11.16" height="11.16" style="fill:rgb(74,137,167);"/>
    </g>
    <g transform="matrix(3.85802,0,0,3.85802,-324.568,-379.654)">
        <path d="M129.66,163.73L108.47,192.55L105.79,192.55L125.59,165.73L116.02,165.73C113.03,165.73 110.92,166.07 109.68,166.74C108.42,167.43 107.47,168.79 106.81,170.81L106.18,170.81C106.2,169.95 106.35,168.51 106.64,166.49C106.79,165.51 106.86,164.81 106.86,164.41C106.86,164.36 106.84,164.02 106.81,163.4C108.65,163.62 111.15,163.73 114.3,163.73L129.67,163.73L129.66,163.73ZM110.96,192.55L132.21,163.73L134.86,163.73L115.15,190.55L123.93,190.55C127.38,190.55 129.83,189.99 131.29,188.85C132.69,187.76 133.78,186.35 134.54,184.64L135.17,184.64C135.13,185.44 134.8,186.85 134.16,188.88C133.56,190.79 133.22,192.13 133.15,192.87C130.69,192.65 128.45,192.54 126.42,192.54L110.97,192.54L110.96,192.55Z" style="fill:rgb(77,77,79);fill-rule:nonzero;"/>
    </g>
    <g transform="matrix(3.85802,0,0,3.85802,-324.568,-379.654)">
        <path d="M140,164.6C140,164.35 140.09,164.13 140.26,163.95C140.43,163.77 140.65,163.68 140.9,163.68C141.15,163.68 141.36,163.77 141.53,163.95C141.7,164.13 141.79,164.34 141.79,164.6C141.79,164.86 141.7,165.06 141.53,165.24C141.36,165.42 141.15,165.5 140.9,165.5C140.65,165.5 140.43,165.41 140.26,165.24C140.09,165.07 140,164.85 140,164.6ZM140.2,174.55L140.2,166.89L141.61,166.89L141.61,174.55L140.2,174.55Z" style="fill:rgb(77,77,79);fill-rule:nonzero;"/>
        <path d="M143.38,174.55L143.38,166.89L144.77,166.89L144.77,167.66C144.96,167.38 145.19,167.17 145.45,167.03C145.72,166.89 146.03,166.82 146.38,166.82C146.94,166.82 147.36,166.98 147.63,167.29C147.9,167.6 148.04,168.08 148.04,168.72L148.04,174.56L146.63,174.56L146.63,169.41C146.63,168.89 146.56,168.53 146.43,168.35C146.29,168.16 146.06,168.07 145.73,168.07C145.42,168.07 145.18,168.17 145.02,168.36C144.86,168.56 144.78,168.85 144.78,169.23L144.78,174.56L143.37,174.56L143.38,174.55Z" style="fill:rgb(77,77,79);fill-rule:nonzero;"/>
        <path d="M149.33,172.93C149.53,173.1 149.72,173.23 149.92,173.32C150.12,173.41 150.31,173.45 150.52,173.45C150.82,173.45 151.06,173.36 151.25,173.18C151.44,173 151.53,172.78 151.53,172.5C151.53,172.17 151.27,171.76 150.76,171.27C150.69,171.2 150.64,171.15 150.6,171.12C150.1,170.65 149.76,170.25 149.59,169.94C149.42,169.63 149.33,169.28 149.33,168.91C149.33,168.26 149.53,167.74 149.92,167.33C150.32,166.92 150.83,166.72 151.46,166.72C151.67,166.72 151.87,166.75 152.07,166.8C152.27,166.85 152.47,166.93 152.67,167.03L152.67,168.48C152.52,168.3 152.35,168.17 152.17,168.09C151.99,168.01 151.78,167.97 151.55,167.97C151.29,167.97 151.07,168.05 150.91,168.22C150.74,168.39 150.66,168.6 150.66,168.85C150.66,169.19 150.91,169.58 151.4,170.04C151.5,170.13 151.57,170.2 151.62,170.24C152.08,170.67 152.41,171.05 152.58,171.4C152.75,171.75 152.85,172.13 152.85,172.55C152.85,173.2 152.65,173.72 152.26,174.11C151.86,174.5 151.34,174.69 150.67,174.69C150.46,174.69 150.24,174.67 150.01,174.62C149.79,174.57 149.56,174.5 149.32,174.41L149.32,172.93L149.33,172.93Z" style="fill:rgb(77,77,79);fill-rule:nonzero;"/>
        <path d="M154.18,174.55L154.18,162.44L155.59,162.44L155.59,170.29L157.62,166.88L159.13,166.88L157.01,170.4L159.22,174.54L157.7,174.54L155.59,170.51L155.59,174.54L154.18,174.54L154.18,174.55Z" style="fill:rgb(77,77,79);fill-rule:nonzero;"/>
        <path d="M159.59,166.89L161.04,166.89L161.94,171.91L163.15,166.89L164.55,166.89L161.46,177.64L160.01,177.64L161.19,173.88L159.6,166.89L159.59,166.89Z" style="fill:rgb(77,77,79);fill-rule:nonzero;"/>
        <path d="M168.28,162.81L166.83,166.81L166.05,166.58L167.09,162.44L168.29,162.81L168.28,162.81Z" style="fill:rgb(77,77,79);fill-rule:nonzero;"/>
        <path d="M169.26,172.93C169.46,173.1 169.65,173.23 169.85,173.32C170.05,173.41 170.24,173.45 170.45,173.45C170.75,173.45 170.99,173.36 171.18,173.18C171.37,173 171.46,172.78 171.46,172.5C171.46,172.17 171.2,171.76 170.69,171.27C170.62,171.2 170.57,171.15 170.53,171.12C170.03,170.65 169.69,170.25 169.52,169.94C169.35,169.63 169.26,169.28 169.26,168.91C169.26,168.26 169.46,167.74 169.85,167.33C170.25,166.92 170.76,166.72 171.39,166.72C171.6,166.72 171.8,166.75 172,166.8C172.2,166.85 172.4,166.93 172.6,167.03L172.6,168.48C172.45,168.3 172.28,168.17 172.1,168.09C171.92,168.01 171.71,167.97 171.48,167.97C171.22,167.97 171,168.05 170.84,168.22C170.67,168.39 170.59,168.6 170.59,168.85C170.59,169.19 170.84,169.58 171.33,170.04C171.43,170.13 171.5,170.2 171.55,170.24C172.01,170.67 172.34,171.05 172.51,171.4C172.68,171.75 172.78,172.13 172.78,172.55C172.78,173.2 172.58,173.72 172.19,174.11C171.79,174.5 171.27,174.69 170.6,174.69C170.39,174.69 170.17,174.67 169.94,174.62C169.72,174.57 169.49,174.5 169.25,174.41L169.25,172.93L169.26,172.93Z" style="fill:rgb(77,77,79);fill-rule:nonzero;"/>
        <path d="M140.32,192.55L140.32,181.14L142.2,181.14C142.89,181.14 143.43,181.19 143.82,181.29C144.21,181.39 144.54,181.55 144.83,181.78C145.16,182.05 145.42,182.41 145.61,182.86C145.79,183.31 145.89,183.81 145.89,184.35C145.89,185.39 145.59,186.18 144.98,186.73C144.37,187.27 143.49,187.54 142.32,187.54L142.04,187.54C141.98,187.54 141.92,187.54 141.88,187.53L141.88,192.55L140.32,192.55ZM141.86,186.15L142.43,186.15C143.12,186.15 143.61,186.01 143.9,185.72C144.19,185.43 144.34,184.96 144.34,184.29C144.34,183.62 144.18,183.19 143.88,182.91C143.57,182.63 143.05,182.49 142.33,182.49L141.87,182.49L141.87,186.15L141.86,186.15Z" style="fill:rgb(77,77,79);fill-rule:nonzero;"/>
        <path d="M152.05,192.29C151.79,192.43 151.54,192.53 151.28,192.59C151.02,192.65 150.74,192.69 150.45,192.69C149.28,192.69 148.41,192.21 147.83,191.26C147.25,190.31 146.96,188.87 146.96,186.95C146.96,185.03 147.27,183.51 147.89,182.5C148.51,181.49 149.42,180.99 150.63,180.99C150.9,180.99 151.15,181.02 151.38,181.07C151.61,181.12 151.84,181.2 152.05,181.3L152.05,182.76C151.83,182.65 151.62,182.57 151.42,182.52C151.22,182.47 151.03,182.44 150.85,182.44C150.03,182.44 149.44,182.8 149.06,183.51C148.68,184.22 148.5,185.37 148.5,186.93C148.5,188.39 148.68,189.47 149.04,190.17C149.4,190.87 149.95,191.22 150.69,191.22C150.9,191.22 151.12,191.18 151.34,191.11C151.56,191.04 151.8,190.93 152.05,190.79L152.05,192.29Z" style="fill:rgb(77,77,79);fill-rule:nonzero;"/>
        <path d="M161.23,192.29C160.97,192.43 160.72,192.53 160.46,192.59C160.2,192.65 159.92,192.69 159.63,192.69C158.46,192.69 157.59,192.21 157.01,191.26C156.43,190.31 156.14,188.87 156.14,186.95C156.14,185.03 156.45,183.51 157.07,182.5C157.69,181.49 158.6,180.99 159.81,180.99C160.08,180.99 160.33,181.02 160.56,181.07C160.79,181.12 161.02,181.2 161.23,181.3L161.23,182.76C161.01,182.65 160.8,182.57 160.6,182.52C160.4,182.47 160.21,182.44 160.03,182.44C159.21,182.44 158.62,182.8 158.24,183.51C157.86,184.22 157.68,185.37 157.68,186.93C157.68,188.39 157.86,189.47 158.22,190.17C158.58,190.87 159.13,191.22 159.87,191.22C160.08,191.22 160.3,191.18 160.52,191.11C160.74,191.04 160.98,190.93 161.23,190.79L161.23,192.29Z" style="fill:rgb(77,77,79);fill-rule:nonzero;"/>
        <path d="M162.05,188.71C162.05,187.42 162.27,186.44 162.71,185.76C163.15,185.09 163.79,184.75 164.63,184.75C165.47,184.75 166.11,185.09 166.55,185.76C166.99,186.43 167.21,187.42 167.21,188.71C167.21,190 166.99,191 166.55,191.68C166.11,192.36 165.47,192.7 164.63,192.7C163.79,192.7 163.15,192.36 162.71,191.68C162.27,191 162.05,190.01 162.05,188.71ZM163.48,188.69C163.48,189.63 163.57,190.31 163.76,190.75C163.94,191.18 164.24,191.4 164.63,191.4C165.02,191.4 165.33,191.18 165.52,190.74C165.71,190.3 165.81,189.62 165.81,188.69C165.81,187.76 165.71,187.08 165.52,186.64C165.33,186.2 165.03,185.98 164.63,185.98C164.23,185.98 163.94,186.2 163.76,186.63C163.57,187.06 163.48,187.75 163.48,188.68L163.48,188.69Z" style="fill:rgb(77,77,79);fill-rule:nonzero;"/>
        <path d="M168.59,192.55L168.59,184.89L169.98,184.89L169.98,185.66C170.17,185.38 170.4,185.17 170.66,185.03C170.93,184.89 171.24,184.82 171.59,184.82C172.15,184.82 172.57,184.98 172.84,185.29C173.11,185.6 173.25,186.08 173.25,186.72L173.25,192.56L171.84,192.56L171.84,187.41C171.84,186.89 171.77,186.53 171.64,186.35C171.5,186.16 171.27,186.07 170.94,186.07C170.63,186.07 170.39,186.17 170.23,186.36C170.07,186.56 169.99,186.85 169.99,187.23L169.99,192.56L168.58,192.56L168.59,192.55Z" style="fill:rgb(77,77,79);fill-rule:nonzero;"/>
        <path d="M175.06,192.55L175.06,185.97L174.29,185.97L174.29,184.88L175.06,184.88L175.06,182.19C175.06,181.6 175.21,181.13 175.5,180.78C175.79,180.44 176.2,180.26 176.71,180.26C176.83,180.26 176.96,180.27 177.12,180.3C177.27,180.33 177.44,180.37 177.63,180.44L177.63,181.72C177.53,181.68 177.43,181.66 177.34,181.64C177.25,181.62 177.17,181.62 177.1,181.62C176.89,181.62 176.73,181.68 176.64,181.8C176.54,181.92 176.5,182.12 176.5,182.39L176.5,184.87L177.55,184.87L177.55,185.96L176.5,185.96L176.5,192.54L175.08,192.54L175.06,192.55Z" style="fill:rgb(77,77,79);fill-rule:nonzero;"/>
        <path d="M178.27,182.6C178.27,182.35 178.36,182.13 178.53,181.95C178.7,181.77 178.92,181.68 179.17,181.68C179.42,181.68 179.63,181.77 179.8,181.95C179.97,182.13 180.06,182.34 180.06,182.6C180.06,182.86 179.97,183.06 179.8,183.24C179.63,183.41 179.42,183.5 179.17,183.5C178.92,183.5 178.7,183.41 178.53,183.24C178.36,183.07 178.27,182.85 178.27,182.6ZM178.47,192.55L178.47,184.89L179.88,184.89L179.88,192.55L178.47,192.55Z" style="fill:rgb(77,77,79);fill-rule:nonzero;"/>
        <path d="M186.23,192.73C186.23,193.79 186.04,194.54 185.65,194.98C185.26,195.42 184.61,195.64 183.71,195.64C182.96,195.64 182.39,195.45 182,195.07C181.6,194.69 181.41,194.15 181.41,193.45L181.41,193.21L182.75,193.21C182.77,193.63 182.85,193.94 183.01,194.14C183.17,194.34 183.41,194.44 183.73,194.44C184.12,194.44 184.4,194.32 184.57,194.07C184.74,193.82 184.83,193.42 184.83,192.87L184.83,191.78C184.64,192.08 184.42,192.31 184.17,192.45C183.92,192.59 183.64,192.67 183.31,192.67C182.63,192.67 182.14,192.35 181.82,191.71C181.5,191.07 181.34,190.07 181.34,188.71C181.34,187.35 181.5,186.36 181.82,185.71C182.14,185.06 182.64,184.75 183.31,184.75C183.64,184.75 183.93,184.82 184.17,184.96C184.41,185.1 184.63,185.32 184.82,185.62L184.82,184.89L186.23,184.89L186.23,192.73ZM182.76,188.71C182.76,189.69 182.84,190.38 183,190.78C183.16,191.18 183.43,191.37 183.81,191.37C184.19,191.37 184.46,191.17 184.62,190.78C184.78,190.39 184.86,189.7 184.86,188.71C184.86,187.72 184.78,187.04 184.62,186.65C184.46,186.26 184.19,186.06 183.81,186.06C183.43,186.06 183.16,186.26 183,186.65C182.84,187.04 182.76,187.73 182.76,188.71Z" style="fill:rgb(77,77,79);fill-rule:nonzero;"/>
        <path d="M187.88,190.29L187.88,184.88L189.29,184.88L189.29,190.36C189.29,190.71 189.37,190.98 189.52,191.16C189.67,191.34 189.91,191.43 190.22,191.43C190.53,191.43 190.75,191.34 190.91,191.16C191.07,190.98 191.14,190.71 191.14,190.36L191.14,184.88L192.57,184.88L192.57,190.29C192.57,191.13 192.38,191.74 192.01,192.12C191.64,192.5 191.04,192.69 190.22,192.69C189.4,192.69 188.8,192.5 188.43,192.12C188.06,191.74 187.88,191.13 187.88,190.29Z" style="fill:rgb(77,77,79);fill-rule:nonzero;"/>
        <path d="M194.31,192.55L194.31,184.89L195.67,184.89L195.67,186.01C195.86,185.6 196.11,185.3 196.41,185.09C196.71,184.88 197.08,184.77 197.52,184.75L197.52,186.23L197.29,186.23C196.74,186.23 196.34,186.37 196.09,186.64C195.84,186.91 195.71,187.34 195.71,187.93L195.71,192.55L194.31,192.55Z" style="fill:rgb(77,77,79);fill-rule:nonzero;"/>
        <path d="M201.8,192.55L201.8,191.8C201.61,192.11 201.39,192.33 201.14,192.48C200.89,192.62 200.61,192.69 200.28,192.69C199.63,192.69 199.14,192.35 198.81,191.68C198.48,191.01 198.31,190.02 198.31,188.7C198.31,187.38 198.48,186.41 198.81,185.74C199.14,185.07 199.63,184.74 200.28,184.74C200.61,184.74 200.9,184.81 201.14,184.95C201.38,185.09 201.6,185.31 201.79,185.61L201.79,184.88L203.2,184.88L203.2,192.54L201.79,192.54L201.8,192.55ZM199.74,188.71C199.74,189.69 199.82,190.38 199.99,190.78C200.16,191.18 200.42,191.38 200.8,191.38C201.18,191.38 201.44,191.18 201.61,190.77C201.78,190.36 201.86,189.68 201.86,188.7C201.86,187.72 201.78,187.03 201.62,186.64C201.46,186.25 201.19,186.05 200.81,186.05C200.43,186.05 200.16,186.25 200,186.64C199.84,187.03 199.76,187.72 199.76,188.7L199.74,188.71Z" style="fill:rgb(77,77,79);fill-rule:nonzero;"/>
        <path d="M204.97,192.55L204.97,185.93L204.2,185.93L204.2,184.89L204.97,184.89L204.97,182.81L206.38,182.81L206.38,184.89L207.43,184.89L207.43,185.93L206.38,185.93L206.38,192.55L204.97,192.55Z" style="fill:rgb(77,77,79);fill-rule:nonzero;"/>
        <path d="M208.22,182.6C208.22,182.35 208.31,182.13 208.48,181.95C208.65,181.77 208.87,181.68 209.12,181.68C209.37,181.68 209.58,181.77 209.75,181.95C209.92,182.13 210.01,182.34 210.01,182.6C210.01,182.86 209.92,183.06 209.75,183.24C209.58,183.42 209.37,183.5 209.12,183.5C208.87,183.5 208.65,183.41 208.48,183.24C208.31,183.07 208.22,182.85 208.22,182.6ZM208.42,192.55L208.42,184.89L209.83,184.89L209.83,192.55L208.42,192.55Z" style="fill:rgb(77,77,79);fill-rule:nonzero;"/>
        <path d="M211.19,188.71C211.19,187.42 211.41,186.44 211.85,185.76C212.29,185.08 212.93,184.75 213.77,184.75C214.61,184.75 215.25,185.09 215.69,185.76C216.13,186.43 216.35,187.42 216.35,188.71C216.35,190 216.13,191 215.69,191.68C215.25,192.36 214.61,192.7 213.77,192.7C212.93,192.7 212.29,192.36 211.85,191.68C211.41,191 211.19,190.01 211.19,188.71ZM212.62,188.69C212.62,189.63 212.71,190.31 212.9,190.75C213.09,191.19 213.38,191.4 213.77,191.4C214.16,191.4 214.47,191.18 214.66,190.74C214.85,190.3 214.95,189.62 214.95,188.69C214.95,187.76 214.86,187.08 214.66,186.64C214.46,186.2 214.17,185.98 213.77,185.98C213.37,185.98 213.08,186.2 212.9,186.63C212.72,187.06 212.62,187.75 212.62,188.68L212.62,188.69Z" style="fill:rgb(77,77,79);fill-rule:nonzero;"/>
        <path d="M217.73,192.55L217.73,184.89L219.12,184.89L219.12,185.66C219.31,185.38 219.54,185.17 219.8,185.03C220.06,184.89 220.38,184.82 220.73,184.82C221.29,184.82 221.71,184.98 221.98,185.29C222.25,185.6 222.39,186.08 222.39,186.72L222.39,192.56L220.98,192.56L220.98,187.41C220.98,186.89 220.91,186.53 220.78,186.35C220.65,186.17 220.41,186.07 220.08,186.07C219.77,186.07 219.53,186.17 219.37,186.36C219.21,186.55 219.13,186.85 219.13,187.23L219.13,192.56L217.72,192.56L217.73,192.55Z" style="fill:rgb(77,77,79);fill-rule:nonzero;"/>
        <path d="M223.67,190.93C223.87,191.1 224.06,191.23 224.26,191.32C224.46,191.41 224.65,191.45 224.86,191.45C225.16,191.45 225.4,191.36 225.59,191.18C225.78,191 225.87,190.78 225.87,190.5C225.87,190.17 225.61,189.76 225.1,189.27C225.03,189.2 224.98,189.15 224.94,189.12C224.44,188.65 224.1,188.25 223.93,187.94C223.76,187.63 223.67,187.28 223.67,186.91C223.67,186.26 223.87,185.74 224.26,185.33C224.65,184.92 225.17,184.72 225.8,184.72C226.01,184.72 226.21,184.75 226.41,184.8C226.61,184.85 226.81,184.93 227.01,185.03L227.01,186.48C226.86,186.3 226.69,186.17 226.51,186.09C226.33,186.01 226.12,185.97 225.89,185.97C225.63,185.97 225.41,186.05 225.25,186.22C225.09,186.39 225,186.6 225,186.85C225,187.19 225.25,187.58 225.74,188.04C225.84,188.13 225.91,188.2 225.96,188.24C226.42,188.67 226.75,189.05 226.92,189.4C227.09,189.75 227.19,190.13 227.19,190.55C227.19,191.2 226.99,191.72 226.6,192.11C226.21,192.5 225.68,192.69 225.01,192.69C224.8,192.69 224.58,192.67 224.35,192.62C224.12,192.57 223.9,192.5 223.66,192.41L223.66,190.93L223.67,190.93Z" style="fill:rgb(77,77,79);fill-rule:nonzero;"/>
    </g>

</svg>
