<?xml version="1.0" encoding="utf-8"?>
<!-- Generator: Adobe Illustrator 27.8.1, SVG Export Plug-In . SVG Version: 6.00 Build 0)  -->
<svg version="1.1" id="Layer_1" xmlns="http://www.w3.org/2000/svg" xmlns:xlink="http://www.w3.org/1999/xlink" x="0px" y="0px"
	 viewBox="0 0 360 360" style="enable-background:new 0 0 360 360;" xml:space="preserve">
<style type="text/css">
	.st0{fill:#4A89A7;}
	.st1{fill:none;}
	.st2{fill:#4D4D4F;}
	.st3{font-family:'ColonnaMT';}
	.st4{font-size:56px;}
	.st5{font-family:'FuturaBT-MediumCondensed';}
	.st6{font-size:16px;}
</style>
<g>
	<g>
		<g>
			<polygon class="st0" points="216.88,126.7 244.57,126.7 244.57,223.35 87.74,223.35 87.74,126.7 145.38,126.7 145.38,130.87 
				92.53,130.87 92.53,218.38 239.4,218.38 239.4,131.25 216.89,131.25 			"/>
			<path class="st0" d="M216.88,126.7c-0.33-2.45-1.27-4.71-2.66-6.62c-2.64-3.61-6.9-5.96-11.71-5.98l-0.01,1.88l0-1.25
				l-13.32-0.05c-1.87-0.01-3.65,0.57-5.16,1.67l0.12,0.16l-1.3,0.95c-0.58-0.43-1.29-0.69-2.07-0.69
				c-1.95-0.01-3.53,1.56-3.53,3.51c-0.01,1.95,1.56,3.53,3.51,3.53c1.95,0.01,3.53-1.56,3.53-3.51c0-0.4-0.08-0.78-0.2-1.14
				l1.3-0.95l-0.62-0.85l0.74,1.01c1.07-0.78,2.34-1.2,3.67-1.19l13.32,0.05l0,0.63c5.96,0.02,10.79,4.89,10.77,10.85
				c-0.01,2.87-1.15,5.58-3.2,7.62c-2.06,2.04-4.77,3.16-7.64,3.15l-0.01,1.88l0-1.25l-13.73-0.05c-1.1,0-2.19-0.3-3.13-0.87
				l-0.1,0.17l-1.7-1.01c0.05-0.24,0.08-0.49,0.08-0.74c0.01-1.95-1.56-3.53-3.51-3.53c-1.95-0.01-3.53,1.56-3.53,3.51
				c-0.01,1.95,1.56,3.53,3.51,3.53c0.93,0,1.76-0.36,2.39-0.94l1.68,1l0.54-0.91l-0.64,1.08c1.33,0.79,2.85,1.21,4.4,1.22
				l13.73,0.05l0,0.63c3.88,0.01,7.54-1.49,10.3-4.24c2.34-2.32,3.78-5.29,4.19-8.49C216.89,129.23,216.88,127.97,216.88,126.7z"/>
			<circle class="st0" cx="149.23" cy="128.66" r="5.68"/>
		</g>
		<ellipse class="st0" cx="165.96" cy="240.74" rx="43.8" ry="5.17"/>
		<rect x="160.38" y="226.07" class="st0" width="11.16" height="11.16"/>
	</g>
	<rect x="105.33" y="159.17" class="st1" width="40.83" height="35.9"/>
	<text transform="matrix(1 0 0 1 105.3284 192.5502)" class="st2 st3 st4">Z</text>
	<rect x="139.3" y="162.44" class="st1" width="131.96" height="41.78"/>
	<text transform="matrix(1 0 0 1 139.2962 174.5506)"><tspan x="0" y="0" class="st2 st5 st6">insky’s</tspan><tspan x="0" y="18" class="st2 st5 st6">PC Configurations</tspan></text>
</g>
</svg>
